<?xml version="1.0" encoding="UTF-8"?>
<svg version="1.1" xmlns="http://www.w3.org/2000/svg" width="128" height="128">
<path d="M0 0 C1.13464188 0.00607269 1.13464188 0.00607269 2.29220581 0.01226807 C3.08907806 0.00876343 3.88595032 0.00525879 4.70697021 0.00164795 C7.34875118 -0.00717566 9.99026573 -0.00131805 12.63204956 0.00543213 C14.46286063 0.00408566 16.29367136 0.00214528 18.1244812 -0.00036621 C21.96460366 -0.00331832 25.80463319 0.00098296 29.64474487 0.01031494 C34.5747365 0.02170953 39.50451039 0.01515052 44.43449402 0.00317001 C48.21592865 -0.00404624 51.99731139 -0.00176174 55.77874756 0.0034256 C57.5968834 0.00476275 59.4150239 0.00311211 61.2331543 -0.00153351 C63.77119482 -0.00659491 66.3088794 0.0011059 68.84689331 0.01226807 C69.60332123 0.0082196 70.35974915 0.00417114 71.13909912 0 C76.34102095 0.04252852 76.34102095 0.04252852 78.56954956 2.27105713 C78.83517456 4.80230713 78.83517456 4.80230713 78.81954956 7.77105713 C78.82728394 9.24058838 78.82728394 9.24058838 78.83517456 10.73980713 C78.56954956 13.27105713 78.56954956 13.27105713 76.56954956 15.27105713 C75.57954956 15.27105713 74.58954956 15.27105713 73.56954956 15.27105713 C73.61595581 16.07027588 73.66236206 16.86949463 73.71017456 17.69293213 C74.15055951 31.0932169 70.58420839 41.2531057 61.56954956 51.27105713 C48.60737104 63.27105713 48.60737104 63.27105713 43.56954956 63.27105713 C43.56954956 63.93105713 43.56954956 64.59105713 43.56954956 65.27105713 C44.64269409 65.65777588 44.64269409 65.65777588 45.73751831 66.05230713 C57.58463886 71.15065418 66.79113366 81.40046604 71.56954956 93.27105713 C74.14136136 99.82917721 73.75725275 106.33646718 73.56954956 113.27105713 C74.20892456 113.41543213 74.84829956 113.55980713 75.50704956 113.70855713 C77.56954956 114.27105713 77.56954956 114.27105713 78.56954956 115.27105713 C78.69442714 117.08032994 78.74525802 118.8950182 78.75704956 120.70855713 C78.77122925 121.69726807 78.78540894 122.685979 78.80001831 123.70465088 C78.56954956 126.27105713 78.56954956 126.27105713 76.56954956 128.27105713 C73.96031551 128.46945313 71.45722429 128.54381689 68.84689331 128.52984619 C68.05002106 128.53335083 67.2531488 128.53685547 66.43212891 128.54046631 C63.79034794 128.54928991 61.14883339 128.54343231 58.50704956 128.53668213 C56.67623849 128.5380286 54.84542776 128.53996898 53.01461792 128.54248047 C49.17449546 128.54543258 45.33446593 128.54113129 41.49435425 128.53179932 C36.56436262 128.52040473 31.63458874 128.52696373 26.7046051 128.53894424 C22.92317047 128.5461605 19.14178773 128.543876 15.36035156 128.53868866 C13.54221572 128.53735151 11.72407522 128.53900215 9.90594482 128.54364777 C7.3679043 128.54870917 4.83021973 128.54100836 2.29220581 128.52984619 C1.15756393 128.53591888 1.15756393 128.53591888 0 128.54211426 C-5.20192183 128.49958574 -5.20192183 128.49958574 -7.43045044 126.27105713 C-7.69607544 123.73980713 -7.69607544 123.73980713 -7.68045044 120.77105713 C-7.68560669 119.79136963 -7.69076294 118.81168213 -7.69607544 117.80230713 C-7.43045044 115.27105713 -7.43045044 115.27105713 -5.43045044 113.27105713 C-4.44045044 113.27105713 -3.45045044 113.27105713 -2.43045044 113.27105713 C-2.47685669 112.47183838 -2.52326294 111.67261963 -2.57107544 110.84918213 C-2.87678467 101.54688695 -1.68210206 93.14853455 3.56954956 85.27105713 C5.21954956 85.60105713 6.86954956 85.93105713 8.56954956 86.27105713 C8.11070474 89.85004676 7.32548798 93.03259279 6.06954956 96.39605713 C4.1373921 101.90977476 3.85412142 107.47167879 3.56954956 113.27105713 C7.49283252 112.29023639 10.25514625 110.87752749 13.38204956 108.39605713 C20.74211029 102.69479797 28.18870358 99.96681348 37.56954956 100.27105713 C45.99755889 101.40643662 55.17226546 104.3930033 61.03439331 110.89605713 C63.07599107 112.72466378 64.89825914 112.91007194 67.56954956 113.27105713 C66.46899289 100.03152464 64.16152767 90.05167204 54.56954956 80.27105713 C52.08301611 78.22780085 49.4764656 76.39746346 46.81954956 74.58355713 C45.48590625 73.67099698 44.15753598 72.7506714 42.83517456 71.82183838 C41.96554077 71.22882935 41.96554077 71.22882935 41.07833862 70.62384033 C39.29755444 69.02718578 38.51201245 67.45057484 37.56954956 65.27105713 C36.24954956 65.27105713 34.92954956 65.27105713 33.56954956 65.27105713 C33.33880737 65.85242432 33.10806519 66.4337915 32.87033081 67.03277588 C31.23727417 69.84281028 29.3981051 71.20274546 26.75704956 73.08355713 C25.47894409 74.0213501 25.47894409 74.0213501 24.17501831 74.97808838 C21.10077918 76.50368531 19.77829709 76.30223452 16.56954956 75.27105713 C16.56954956 73.08355713 16.56954956 73.08355713 17.56954956 70.27105713 C20.44993742 67.92876371 23.75774328 65.27105713 27.56954956 65.27105713 C27.56954956 64.61105713 27.56954956 63.95105713 27.56954956 63.27105713 C26.49640503 62.88433838 26.49640503 62.88433838 25.40158081 62.48980713 C13.55446026 57.39146008 4.34796547 47.14164822 -0.43045044 35.27105713 C-3.00226224 28.71293704 -2.61815363 22.20564708 -2.43045044 15.27105713 C-3.06982544 15.12668213 -3.70920044 14.98230713 -4.36795044 14.83355713 C-6.43045044 14.27105713 -6.43045044 14.27105713 -7.43045044 13.27105713 C-7.55532802 11.46178432 -7.6061589 9.64709606 -7.61795044 7.83355713 C-7.63213013 6.84484619 -7.64630981 5.85613525 -7.66091919 4.83746338 C-7.20822185 -0.20359008 -4.39770154 0.03595359 0 0 Z M-1.43045044 5.27105713 C-1.43045044 6.92105713 -1.43045044 8.57105713 -1.43045044 10.27105713 C22.98954956 10.27105713 47.40954956 10.27105713 72.56954956 10.27105713 C72.56954956 8.62105713 72.56954956 6.97105713 72.56954956 5.27105713 C48.14954956 5.27105713 23.72954956 5.27105713 -1.43045044 5.27105713 Z M3.56954956 15.27105713 C2.91392519 26.2124728 2.91392519 26.2124728 6.56954956 36.27105713 C15.86920076 41.0909983 28.26391445 37.57545554 37.90548706 35.69293213 C47.02578667 33.99500401 55.40953288 33.91401762 64.56954956 35.27105713 C68.02231833 27.79005813 67.56954956 24.4301661 67.56954956 15.27105713 C46.44954956 15.27105713 25.32954956 15.27105713 3.56954956 15.27105713 Z M32.22384644 41.84918213 C25.5928915 43.0994632 19.31370266 43.50818521 12.56954956 43.27105713 C15.94286988 50.57088809 24.32788149 56.05253799 31.56954956 59.27105713 C38.50883657 60.54325975 42.25931544 58.12354862 47.95236206 54.20465088 C53.58602125 50.04246984 57.96398711 46.32840205 61.56954956 40.27105713 C51.7843816 37.66167901 41.90928218 39.92380336 32.22384644 41.84918213 Z M28.13204956 107.52105713 C27.18458862 107.75308838 26.23712769 107.98511963 25.26095581 108.22418213 C22.03120617 109.27250118 22.03120617 109.27250118 18.56954956 113.27105713 C29.78954956 113.27105713 41.00954956 113.27105713 52.56954956 113.27105713 C48.60837 109.30987757 47.62167457 108.66186568 42.50704956 107.52105713 C41.464198 107.27871338 40.42134644 107.03636963 39.34689331 106.78668213 C35.22731714 106.0218663 32.14813333 106.49660157 28.13204956 107.52105713 Z M-1.43045044 118.27105713 C-1.43045044 119.92105713 -1.43045044 121.57105713 -1.43045044 123.27105713 C22.98954956 123.27105713 47.40954956 123.27105713 72.56954956 123.27105713 C72.56954956 121.62105713 72.56954956 119.97105713 72.56954956 118.27105713 C48.14954956 118.27105713 23.72954956 118.27105713 -1.43045044 118.27105713 Z " fill="#000000" transform="translate(28.430450439453125,-0.27105712890625)"/>
<path d="M0 0 C1.32 0.66 2.64 1.32 4 2 C4 3.98 4 5.96 4 8 C2.34385343 8.38218767 0.67542976 8.71395102 -1 9 C-2 8 -2 8 -2.1875 5.0625 C-2 2 -2 2 0 0 Z " fill="#000000" transform="translate(63,86)"/>
<path d="M0 0 C1.67542976 0.28604898 3.34385343 0.61781233 5 1 C5 2.98 5 4.96 5 7 C3.34385343 7.38218767 1.67542976 7.71395102 0 8 C-1 7 -1 7 -1.125 4 C-1 1 -1 1 0 0 Z " fill="#000000" transform="translate(62,73)"/>
<path d="M0 0 C2.0625 0.4375 2.0625 0.4375 4 1 C3.67 2.65 3.34 4.3 3 6 C1.68 5.67 0.36 5.34 -1 5 C-1 1 -1 1 0 0 Z " fill="#000000" transform="translate(39,77)"/>
</svg>
