<?xml version="1.0" encoding="UTF-8"?>
<svg version="1.1" xmlns="http://www.w3.org/2000/svg" width="512" height="512">
<path d="M0 0 C0.90340118 -0.01022186 1.80680237 -0.02044373 2.73757935 -0.03097534 C5.70830171 -0.05865542 8.6780902 -0.05686266 11.64892578 -0.05224609 C13.72486716 -0.06002646 15.80080537 -0.06869712 17.8767395 -0.07821655 C22.22261893 -0.09311701 26.56817334 -0.09257634 30.9140625 -0.08203125 C36.46806252 -0.07044729 42.02072739 -0.10429915 47.57450676 -0.1507206 C51.86068425 -0.18026549 56.14654281 -0.18192929 60.43280411 -0.17570114 C62.47963225 -0.17672415 64.52647904 -0.18713553 66.57320786 -0.20732498 C85.87731649 -0.3743807 85.87731649 -0.3743807 92.24539185 4.96939087 C97.8746984 11.00386296 98.48384402 15.89916497 98.23095703 24.09619141 C97.23450334 30.8203522 94.11209111 34.67579153 88.87548828 38.77587891 C83.32574481 41.78991938 76.90371194 40.96496334 70.78173828 40.79931641 C64.31580078 40.67556641 64.31580078 40.67556641 57.71923828 40.54931641 C57.71923828 54.07931641 57.71923828 67.60931641 57.71923828 81.54931641 C62.00923828 81.87931641 66.29923828 82.20931641 70.71923828 82.54931641 C74.6386688 83.31003865 78.42748892 84.11769438 82.28173828 85.11181641 C83.82365845 85.50554443 83.82365845 85.50554443 85.39672852 85.90722656 C108.57900163 92.06700088 129.7133066 102.97653008 148.71923828 117.54931641 C153.12738194 115.90560182 155.76770121 112.51519131 158.90673828 109.17431641 C164.80776061 103.10797618 170.00337059 98.62218662 178.78173828 98.11181641 C185.5616886 98.86514422 189.88402099 100.26151901 194.59423828 105.36181641 C198.54684773 110.30482914 200.34673942 114.92102936 200.06689453 121.36962891 C198.26165021 132.68790231 188.63083475 140.11948156 180.71923828 147.54931641 C182.05835875 151.33233172 183.74651511 154.09017483 186.21923828 157.23681641 C200.58690533 176.68001801 209.27352524 199.15880849 214.71923828 222.54931641 C214.8985791 223.27892578 215.07791992 224.00853516 215.26269531 224.76025391 C220.61938661 247.31474358 220.3719889 276.09067919 214.71923828 298.54931641 C214.52056152 299.3649707 214.32188477 300.180625 214.1171875 301.02099609 C202.10705589 349.18747148 173.2739888 390.31139515 130.52783203 416.12353516 C113.37746669 426.14957909 94.98403273 432.85680523 75.71923828 437.54931641 C75.00670898 437.72865723 74.29417969 437.90799805 73.56005859 438.09277344 C51.03229045 443.49150321 22.15605445 443.19657475 -0.28076172 437.54931641 C-1.50424316 437.25130127 -1.50424316 437.25130127 -2.75244141 436.94726562 C-50.82638139 424.96020737 -92.09640221 396.01536608 -117.85498047 353.35791016 C-127.8810244 336.20754482 -134.58825055 317.81411085 -139.28076172 298.54931641 C-139.54977295 297.48052246 -139.54977295 297.48052246 -139.82421875 296.39013672 C-145.26209535 273.69901706 -144.71755809 245.174095 -139.28076172 222.54931641 C-139.03132812 221.42299805 -139.03132812 221.42299805 -138.77685547 220.27392578 C-132.99761982 194.35298367 -121.41300669 170.58910516 -105.28076172 149.54931641 C-106.9244763 145.14117275 -110.31488681 142.50085348 -113.65576172 139.36181641 C-119.72210195 133.46079408 -124.2078915 128.26518409 -124.71826172 119.48681641 C-123.96493391 112.70686609 -122.56855912 108.3845337 -117.46826172 103.67431641 C-112.52524899 99.72170695 -107.90904876 97.92181527 -101.46044922 98.20166016 C-90.14217581 100.00690448 -82.71059657 109.63771993 -75.28076172 117.54931641 C-71.4977464 116.21019594 -68.73990329 114.52203957 -65.59326172 112.04931641 C-42.62162466 95.07429143 -11.12557544 81.54931641 17.71923828 81.54931641 C17.71923828 68.01931641 17.71923828 54.48931641 17.71923828 40.54931641 C9.23768821 40.78525922 9.23768821 40.78525922 0.75854492 41.08984375 C-7.2274657 41.20128482 -12.33824962 40.03587699 -18.28076172 34.54931641 C-22.86533671 29.1820091 -23.00706537 23.957952 -22.79248047 17.00244141 C-22.02475092 11.82173209 -20.1026909 8.12442824 -16.28076172 4.54931641 C-10.69413927 0.7284584 -6.69247394 -0.03949215 0 0 Z M-58.28076172 159.54931641 C-59.22435547 160.41814453 -60.16794922 161.28697266 -61.14013672 162.18212891 C-85.53129602 185.09310692 -100.36034621 218.94238938 -101.65966797 252.25634766 C-102.65807524 290.16977355 -91.97510198 326.0115355 -65.66357422 354.06494141 C-64.87724609 354.88478516 -64.09091797 355.70462891 -63.28076172 356.54931641 C-62.41193359 357.49291016 -61.54310547 358.43650391 -60.64794922 359.40869141 C-36.90895172 384.68136502 -2.17021527 398.77972037 32.19628906 400.52807617 C68.48295492 401.51121244 104.67027972 388.84727754 131.23486328 363.93212891 C132.05470703 363.14580078 132.87455078 362.35947266 133.71923828 361.54931641 C134.66283203 360.68048828 135.60642578 359.81166016 136.57861328 358.91650391 C160.96977258 336.00552589 175.79882277 302.15624343 177.09814453 268.84228516 C178.0965518 230.92885926 167.41357854 195.08709731 141.10205078 167.03369141 C140.31572266 166.21384766 139.52939453 165.39400391 138.71923828 164.54931641 C137.41599609 163.13392578 137.41599609 163.13392578 136.08642578 161.68994141 C110.46884865 134.41732109 75.20896585 122.76655069 38.71923828 120.54931641 C2.37365031 120.54931641 -32.13315406 134.4706361 -58.28076172 159.54931641 Z " fill="#000000" transform="translate(294.28076171875,35.45068359375)"/>
<path d="M0 0 C4.840136 2.98902439 8.32528295 6.43626322 10.234375 11.89453125 C10.79094843 17.00933778 10.70067236 22.09912552 10.625 27.234375 C10.61753016 28.72651915 10.61184074 30.21867318 10.60784912 31.71083069 C10.59265097 35.61878022 10.55342085 39.52612545 10.5090332 43.43383789 C10.46795379 47.42911609 10.44981121 51.4244929 10.4296875 55.41992188 C10.38691966 63.24506575 10.31874064 71.0697135 10.234375 78.89453125 C11.0537706 78.88120758 11.8731662 78.86788391 12.71739197 78.85415649 C20.46991965 78.73353141 28.22198723 78.6423819 35.97521114 78.58365822 C39.96052788 78.55245149 43.94506405 78.51017842 47.92993164 78.44189453 C51.78145997 78.37631461 55.63224145 78.34074519 59.48428535 78.32526779 C60.94786894 78.31424992 62.41141534 78.29273465 63.87467766 78.26015091 C72.75074136 78.07050563 79.51113564 78.52483674 86.234375 84.89453125 C90.81894999 90.26183856 90.96067865 95.48589566 90.74609375 102.44140625 C89.9783642 107.62211556 88.05630418 111.31941942 84.234375 114.89453125 C78.64775255 118.71538926 74.64608722 119.4833398 67.95361328 119.44384766 C67.0502121 119.45406952 66.14681091 119.46429138 65.21603394 119.474823 C62.24531157 119.50250308 59.27552308 119.50071032 56.3046875 119.49609375 C54.22874612 119.50387411 52.15280791 119.51254478 50.07687378 119.52206421 C45.73099435 119.53696467 41.38543994 119.536424 37.03955078 119.52587891 C31.48555077 119.51429495 25.93288589 119.54814681 20.37910652 119.59456825 C16.09292903 119.62411315 11.80707047 119.62577695 7.52080917 119.6195488 C5.47398104 119.62057181 3.42713424 119.63098319 1.38040543 119.65117264 C-17.84190512 119.81752048 -17.84190512 119.81752048 -24.15139771 114.86508179 C-29.14441193 108.76991359 -30.36045753 104.32708775 -30.31494141 96.61376953 C-30.32516327 95.71036835 -30.33538513 94.80696716 -30.34591675 93.87619019 C-30.37359683 90.90546782 -30.37180407 87.93567933 -30.3671875 84.96484375 C-30.37496786 82.88890237 -30.38363853 80.81296416 -30.39315796 78.73703003 C-30.40805842 74.3911506 -30.40751775 70.04559619 -30.39697266 65.69970703 C-30.3853887 60.14570702 -30.41924056 54.59304214 -30.465662 49.03926277 C-30.4952069 44.75308528 -30.4968707 40.46722672 -30.49064255 36.18096542 C-30.49166556 34.13413729 -30.50207694 32.08729049 -30.52226639 30.04056168 C-30.6893221 10.73645304 -30.6893221 10.73645304 -25.34555054 4.36837769 C-18.35137696 -2.15619424 -9.07745747 -3.62841873 0 0 Z " fill="#000000" transform="translate(341.765625,197.10546875)"/>
<path d="M0 0 C0.90340118 -0.01022186 1.80680237 -0.02044373 2.73757935 -0.03097534 C5.70830171 -0.05865542 8.6780902 -0.05686266 11.64892578 -0.05224609 C13.72486716 -0.06002646 15.80080537 -0.06869712 17.8767395 -0.07821655 C22.22261893 -0.09311701 26.56817334 -0.09257634 30.9140625 -0.08203125 C36.46806252 -0.07044729 42.02072739 -0.10429915 47.57450676 -0.1507206 C51.86068425 -0.18026549 56.14654281 -0.18192929 60.43280411 -0.17570114 C62.47963225 -0.17672415 64.52647904 -0.18713553 66.57320786 -0.20732498 C85.87731649 -0.3743807 85.87731649 -0.3743807 92.24539185 4.96939087 C97.8746984 11.00386296 98.48384402 15.89916497 98.23095703 24.09619141 C97.46322748 29.27690072 95.54116746 32.97420457 91.71923828 36.54931641 C86.13261583 40.37017442 82.1309505 41.13812496 75.43847656 41.09863281 C74.08337479 41.11396561 74.08337479 41.11396561 72.70089722 41.12960815 C69.73017485 41.15728824 66.76038636 41.15549548 63.78955078 41.15087891 C61.7136094 41.15865927 59.63767119 41.16732994 57.56173706 41.17684937 C53.21585764 41.19174983 48.87030322 41.19120915 44.52441406 41.18066406 C38.97041405 41.1690801 33.41774917 41.20293196 27.8639698 41.24935341 C23.57779231 41.27889831 19.29193375 41.2805621 15.00567245 41.27433395 C12.95884432 41.27535697 10.91199753 41.28576834 8.86526871 41.30595779 C-10.43883993 41.47301351 -10.43883993 41.47301351 -16.80691528 36.12924194 C-22.43622184 30.09476985 -23.04536745 25.19946785 -22.79248047 17.00244141 C-22.02475092 11.82173209 -20.1026909 8.12442824 -16.28076172 4.54931641 C-10.69413927 0.7284584 -6.69247394 -0.03949215 0 0 Z " fill="#000000" transform="translate(22.28076171875,275.45068359375)"/>
<path d="M0 0 C1.47777884 -0.00015518 2.95555808 -0.00164731 4.43333435 -0.00440979 C7.52076349 -0.00578969 10.60772575 0.00669634 13.69506836 0.02954102 C17.64156587 0.05794993 21.58728997 0.05517633 25.53384495 0.0424509 C28.58203171 0.03547878 31.63004136 0.04329997 34.67820549 0.05570793 C36.13297788 0.06020581 37.58776938 0.06057385 39.04254341 0.05664253 C41.07860595 0.05371491 43.11466436 0.07245234 45.15063477 0.09204102 C46.88435081 0.10014549 46.88435081 0.10014549 48.65309143 0.1084137 C53.90201212 0.7407631 57.80251224 2.84006875 61.12109375 6.93359375 C61.600625 7.50980469 62.08015625 8.08601563 62.57421875 8.6796875 C66.60271796 14.32201321 66.71678409 19.70441566 65.87109375 26.49609375 C63.69778972 32.19518714 59.74559071 35.99917202 54.87109375 39.49609375 C51.55525449 40.6013735 49.01668579 40.65686893 45.52294922 40.70483398 C44.21083466 40.7241246 42.89872009 40.74341522 41.54684448 40.76329041 C40.11066682 40.77810153 38.67447813 40.79187433 37.23828125 40.8046875 C36.51308414 40.81125933 35.78788704 40.81783115 35.04071426 40.82460213 C31.19838664 40.85718004 27.35608647 40.88162902 23.51367188 40.90112305 C20.34561377 40.91889605 17.17845255 40.95365123 14.01074219 41.00366211 C10.17515952 41.06413656 6.34040449 41.09463581 2.50436783 41.10429573 C1.04917896 41.11280911 -0.40599026 41.13152503 -1.86090469 41.16103935 C-10.70709965 41.33076082 -17.42525964 40.82823751 -24.12890625 34.49609375 C-28.71348124 29.12878644 -28.8552099 23.90472934 -28.640625 16.94921875 C-27.66007902 10.33240463 -24.62484523 6.43912334 -19.44970703 2.41040039 C-13.55654772 -0.86588587 -6.54735118 -0.05603898 0 0 Z " fill="#000000" transform="translate(68.12890625,355.50390625)"/>
<path d="M0 0 C1.47777884 -0.00015518 2.95555808 -0.00164731 4.43333435 -0.00440979 C7.52076349 -0.00578969 10.60772575 0.00669634 13.69506836 0.02954102 C17.64156587 0.05794993 21.58728997 0.05517633 25.53384495 0.0424509 C28.58203171 0.03547878 31.63004136 0.04329997 34.67820549 0.05570793 C36.13297788 0.06020581 37.58776938 0.06057385 39.04254341 0.05664253 C41.07860595 0.05371491 43.11466436 0.07245234 45.15063477 0.09204102 C46.88435081 0.10014549 46.88435081 0.10014549 48.65309143 0.1084137 C53.90201212 0.7407631 57.80251224 2.84006875 61.12109375 6.93359375 C61.600625 7.50980469 62.08015625 8.08601562 62.57421875 8.6796875 C66.60271796 14.32201321 66.71678409 19.70441566 65.87109375 26.49609375 C63.69778972 32.19518714 59.74559071 35.99917202 54.87109375 39.49609375 C51.55525449 40.6013735 49.01668579 40.65686893 45.52294922 40.70483398 C44.21083466 40.7241246 42.89872009 40.74341522 41.54684448 40.76329041 C40.11066682 40.77810153 38.67447813 40.79187433 37.23828125 40.8046875 C36.51308414 40.81125933 35.78788704 40.81783115 35.04071426 40.82460213 C31.19838664 40.85718004 27.35608647 40.88162902 23.51367188 40.90112305 C20.34561377 40.91889605 17.17845255 40.95365123 14.01074219 41.00366211 C10.17515952 41.06413656 6.34040449 41.09463581 2.50436783 41.10429573 C1.04917896 41.11280911 -0.40599026 41.13152503 -1.86090469 41.16103935 C-10.70709965 41.33076082 -17.42525964 40.82823751 -24.12890625 34.49609375 C-28.71348124 29.12878644 -28.8552099 23.90472934 -28.640625 16.94921875 C-27.66007902 10.33240463 -24.62484523 6.43912334 -19.44970703 2.41040039 C-13.55654772 -0.86588587 -6.54735118 -0.05603898 0 0 Z " fill="#000000" transform="translate(68.12890625,195.50390625)"/>
</svg>
